# xmcd CD database file
#
# Track frame offsets:
#	150
#	19176
#	43619
#	61493
#	79776
#	106293
#	132292
#	149196
#	165606
#
# Disc length: 2378 seconds
#
# Revision: 0
# Processed by: cddbd v1.5.1PL2 Copyright (c) Steve Scherf et al.
# Submitted via: CDex 1.51
#
DISCID=7d094809
DTITLE=James Abbuhl - Voyages and Homecomings
DYEAR=2000
DGENRE=Jazz
TTITLE0=Napoli
TTITLE1=Inconsolable Heart
TTITLE2=Magnolias and Telegrams
TTITLE3=Schopenhauer's Bliss
TTITLE4=Secret Life Of A Clown
TTITLE5=Midnight On Bleeker
TTITLE6=Sunflower
TTITLE7=My Favorite Things
TTITLE8=The Darkening Stars
EXTD=YEAR: 2000
EXTT0=
EXTT1=
EXTT2=
EXTT3=
EXTT4=
EXTT5=
EXTT6=
EXTT7=
EXTT8=
PLAYORDER=
